<svg width="116" height="28" viewBox="0 0 116 28" fill="none" xmlns="http://www.w3.org/2000/svg">
<path d="M0.568332 27.0507V7.47504H4.55395V27.0507H0.568332ZM0 2.56141C0 1.8516 0.242208 1.24727 0.726604 0.748473C1.21582 0.249673 1.81533 0.000275915 2.52515 0.000275915C3.23978 0.000275915 3.8441 0.249673 4.33809 0.748473C4.83689 1.24727 5.08629 1.8516 5.08629 2.56141C5.08629 3.27604 4.83689 3.87556 4.33809 4.35996C3.8441 4.84917 3.23978 5.09376 2.52515 5.09376C1.81533 5.09376 1.21578 4.84916 0.726604 4.35996C0.242202 3.87556 0 3.27604 0 2.56141ZM28.5827 27.0507H24.5971V24.3817C24.5971 23.5519 24.6019 22.5855 24.6115 21.4824C24.6259 20.3792 24.6331 19.1874 24.6331 17.9068C24.6331 16.6263 24.5731 15.528 24.4532 14.6119C24.3333 13.7006 24.1319 12.9596 23.8489 12.3888C23.5611 11.8181 23.175 11.4032 22.6906 11.1442C22.2014 10.8804 21.5899 10.7485 20.8561 10.7485C20.3093 10.7485 19.7698 10.8564 19.2374 11.0723C18.705 11.2833 18.1894 11.5735 17.6906 11.9428C17.1918 12.3121 16.729 12.7461 16.3021 13.2449C15.8753 13.7389 15.4964 14.2593 15.1654 14.8061V27.0506H11.1727V7.4749H14.6619L15.0216 11.1081C15.5683 10.2783 16.1199 9.6021 16.6762 9.07932C17.2326 8.55653 17.8009 8.14647 18.3813 7.8491C18.9616 7.55173 19.5611 7.3503 20.1798 7.24477C20.7985 7.13926 21.4268 7.0865 22.0647 7.0865C23.3693 7.0865 24.4508 7.29273 25.3093 7.70519C26.163 8.12245 26.8321 8.76993 27.3165 9.64764C27.8009 10.5254 28.1391 11.6405 28.3309 12.993C28.5227 14.3455 28.6187 15.9474 28.6187 17.7988C28.6187 17.7988 28.6115 17.9283 28.5971 18.1873C28.5875 18.4511 28.5827 18.8012 28.5827 19.2376V20.734V22.4247L28.5827 27.0507ZM47.1942 11.1802L39.079 11.1442V19.5399C39.079 20.3936 39.1558 21.1011 39.3092 21.6622C39.4627 22.2185 39.6714 22.6694 39.9351 23.0147C40.1941 23.3552 40.5035 23.5927 40.8632 23.727C41.2181 23.8565 41.609 23.9212 42.0358 23.9212C42.8176 23.9212 43.5418 23.8133 44.2085 23.5975C44.8704 23.3864 45.4387 23.149 45.9136 22.8852C46.4843 22.6022 46.9951 22.2593 47.4459 21.8564L47.2661 26.1587C45.9375 26.7534 44.7936 27.1275 43.8345 27.281C42.8705 27.4345 41.9256 27.5112 41 27.5112C40.0072 27.5112 39.1415 27.3409 38.4028 27.0004C37.669 26.655 37.0527 26.173 36.5539 25.5543C36.0551 24.9404 35.681 24.1994 35.4316 23.3313C35.1822 22.468 35.0575 21.5135 35.0575 20.468V15.0218C35.0575 13.8132 35.0695 12.5206 35.0935 11.144H31.6401V10.0361C32.3547 9.47016 33.043 8.73636 33.7048 7.83466C34.3715 6.933 34.9638 6.05291 35.4818 5.19437C36.1005 4.20155 36.6712 3.17038 37.194 2.10086H39.0789V7.69069H47.1941L47.1942 11.1802ZM66.3813 22.3527V26.1944C65.4077 26.6212 64.3214 26.9306 63.1223 27.1224C61.9233 27.3143 60.7554 27.4102 59.6188 27.4102C56.295 27.4102 53.8515 26.5972 52.2879 24.9714C50.7196 23.3455 49.9354 20.8012 49.9354 17.3382C49.9354 15.8418 50.1201 14.4581 50.4894 13.1871C50.8587 11.9162 51.427 10.8178 52.1944 9.89216C52.9666 8.97129 53.9402 8.24946 55.1153 7.72668C56.2904 7.20389 57.6956 6.94252 59.3312 6.94252C60.9235 6.94252 62.2401 7.20871 63.281 7.74108C64.3266 8.27345 65.1467 8.95689 65.7414 9.79145C66.3314 10.6212 66.7462 11.5349 66.986 12.5325C67.2211 13.5253 67.3385 14.4965 67.3385 15.4461C67.3385 15.7819 67.3266 16.1272 67.3026 16.4821C67.2834 16.837 67.2618 17.1679 67.2378 17.4749C67.2139 17.7867 67.1899 18.0481 67.1659 18.2591C67.1419 18.4749 67.1299 18.6188 67.1299 18.6908H53.9571C54.1489 20.5133 54.7197 21.8538 55.6693 22.7122C56.619 23.5659 58.0074 23.9928 59.8348 23.9928C60.9954 23.9928 61.9858 23.9088 62.806 23.741C63.6213 23.5731 64.3024 23.3837 64.8492 23.1726C65.4678 22.9328 65.9787 22.6594 66.3815 22.3525L66.3813 22.3527ZM58.9423 10.0001C57.374 10.0001 56.1989 10.4629 55.4173 11.3886C54.6355 12.3142 54.1487 13.6428 53.9568 15.3742H63.4603C63.4603 14.6404 63.3788 13.9473 63.2157 13.2951C63.0478 12.6428 62.7793 12.0744 62.4099 11.59C62.0454 11.1008 61.5778 10.7147 61.007 10.4318C60.4363 10.144 59.748 10.0001 58.9423 10.0001L58.9423 10.0001ZM85.2084 11.1799L77.0932 11.144V19.5396C77.0932 20.3934 77.17 21.1008 77.3234 21.6619C77.4769 22.2183 77.6856 22.6691 77.9493 23.0144C78.2083 23.355 78.5153 23.5924 78.8702 23.7267C79.2299 23.8562 79.6232 23.9209 80.05 23.9209C80.8318 23.9209 81.5536 23.813 82.2155 23.5972C82.8822 23.3862 83.4529 23.1487 83.9278 22.8849C84.4985 22.602 85.0093 22.2591 85.4601 21.8562L85.2803 26.1584C83.9517 26.7531 82.8078 27.1272 81.8487 27.2807C80.8847 27.4342 79.9398 27.5109 79.0142 27.5109C78.0166 27.5109 77.1509 27.3407 76.417 27.0001C75.6832 26.6548 75.0669 26.1728 74.5681 25.5541C74.0693 24.9402 73.6952 24.1991 73.4458 23.331C73.1964 22.4677 73.0717 21.5133 73.0717 20.4677V15.0215C73.0717 13.8129 73.0837 12.5203 73.1077 11.1437H69.6543V10.0358C70.3641 9.46989 71.0524 8.73609 71.719 7.83439C72.3857 6.93273 72.978 6.05263 73.496 5.1941C74.1147 4.20128 74.6854 3.1701 75.2082 2.10058H77.0931V7.69041H85.2084L85.2084 11.1799ZM89.7625 27.0504V7.47476H93.7481V27.0504H89.7625ZM89.1941 2.56114C89.1941 1.85133 89.4387 1.247 89.9279 0.748202C90.4123 0.249403 91.0095 0 91.7193 0C92.4339 0 93.0406 0.249403 93.5394 0.748202C94.0382 1.247 94.2876 1.85133 94.2876 2.56114C94.2876 3.27577 94.0382 3.87529 93.5394 4.35969C93.0406 4.8489 92.4339 5.09349 91.7193 5.09349C91.0095 5.09349 90.4124 4.84889 89.9279 4.35969C89.4387 3.87529 89.1941 3.27577 89.1941 2.56114ZM97.1654 27.0504L104.108 16.9786L97.4533 7.47511H102.187L106.597 14.5975L110.979 7.47511H115.568L109.166 16.9786L116 27.0504H111.367L106.532 19.4678L101.655 27.0504H97.1654Z" fill="#0184F9"/>
</svg>
